# xmcd
#
# Track frame offsets:
#	150
#	17300
#	29157
#	44312
#	63495
#	76272
#	89335
#	103152
#	116505
#	132775
#	147750
#	160117
#	173615
#
# Disc length: 2480 seconds
#
# Revision: 0
# Processed by: cddbd v1.5.2PL0 Copyright (c) Steve Scherf et al.
# Submitted via: EasyCDDAExtractor 16.0.6.1
#
DISCID=a009ae0d
DTITLE=Συλλογικός δίσκος - Τα πιο ωραία λαϊκά 1
DYEAR=1997
DGENRE=Λαϊκή
TTITLE0=Περπινιάδης Βαγγέλης - Ανεβαίνω σκαλοπάτια [Απ. Καλδάρα]
TTITLE1=Ιωάννου Α. - Ξημέρωσε καλή μου [Ά. Πάνου-Ν. Καρανικόλα]
TTITLE2=Κερμανίδης Πόλυς - Δεν θέλω την συμπόνια κανενός [Ά. Πάνου-Ε. Ατταλίδη
TTITLE2=]
TTITLE3=Δημητρίου Φούλη - Κρίμα τέτοιο παλληκάρι [Ν. Κοφινιώτη-Στ. Τζουανάκου]
TTITLE4=Πάνου Πόλυ - Η λαδιά [Α. Αθανασίου]
TTITLE5=Ζακυνθηνάκης Ανδρέας - Δυό πόερτες έχει η ζωή [Στ. Καζαντζίδη]
TTITLE6=Ιωάννου Α. - Τα δυό σου μάτια με ξεκουράζουν [Σ. Ντ. Ιωάννου-Απ. Καλδά
TTITLE6=ρα]
TTITLE7=Αγγελόπουλος Μανώλης - Αυτά τα χέρια μου [Στ. Βαρτάνη]
TTITLE8=Χρυσάφη Άννα - Το χασαπάκι [Π. Τούντα]
TTITLE9=Ζαγοραίος Σπύρος - Ένας αλήτης πέθανε [Κ. Καπλάνη-Κ. Μάνεση]
TTITLE10=Κερμανίδης Πόλυς - Η Χριστίνα [Ηλ. Λεπενιώτη-Π. Κερμανίδη]
TTITLE11=Ιωάννου Α. - Δεν υπάρχει για μάς χωρισμός [Απ. Καλδάρα-Ε. Παπαγιαννοπ
TTITLE11=ούλου]
TTITLE12=Λύδια Γιώτα - Πάρε με νοικοκυρά σου [Στ. Βαρτάνη]
EXTD=
EXTT0=
EXTT1=
EXTT2=
EXTT3=
EXTT4=
EXTT5=
EXTT6=
EXTT7=
EXTT8=
EXTT9=
EXTT10=
EXTT11=
EXTT12=
PLAYORDER=
